<?xml version="1.0" standalone="no"?><!DOCTYPE svg PUBLIC "-//W3C//DTD SVG 1.1//EN" "http://www.w3.org/Graphics/SVG/1.1/DTD/svg11.dtd"><svg class="icon" width="200px" height="200.00px" viewBox="0 0 1024 1024" version="1.1" xmlns="http://www.w3.org/2000/svg"><path d="M268 662.56l104.71 104.71L487 649.77V512l70-68.56L521.56 408H373.44L268 513.44v149.12z" fill="#F3AEB0" /><path d="M555.36 730.93L487 663v-13.23l-114.29 117.5 0.73 0.73h148.12l4.41-4.41 29.39-32.66z" fill="#8EB8BA" /><path d="M572 298h145v-84.09L666.71 168H227.29L177 213.91V298h210v20h-51.84L177 476.16v223.68L335.16 858h223.68l74.35-74.35-28.28-28.29L542.27 818H351.73L217 683.27V492.73L351.73 358h190.54l65 65 28.28-28.29L558.84 318H507v-20z m79.2-90l25.8 23.55V258H572v-50zM217 258v-26.45L242.8 208H322v50z m145 0v-50h170v50H362z m105 60h-40v-20h40z" fill="#272035" /><path d="M380.73 428h132.54l29.59 29.58 28.28-28.28-41.3-41.3H364.16L247 505.16v165.68L364.16 788h165.68l41.3-41.3-28.28-28.28L513.27 748H380.73L287 654.27V521.73L380.73 428z" fill="#272035" /><path d="M854.38 492.54l-91.92-91.92L749.84 388H584.16L467 505.16v165.68l12.62 12.62 91.92 91.92L584.16 788h165.68L867 670.84V505.16zM507 654.27V521.73L600.73 428h132.54l0.91 0.9L507.9 655.18z m29.19 29.19l226.27-226.27 35.35 35.35-226.27 226.27zM827 654.27L733.27 748H600.73l-0.91-0.9L826.1 520.82l0.9 0.91z" fill="#272035" /></svg>