<?xml version="1.0" standalone="no"?><!DOCTYPE svg PUBLIC "-//W3C//DTD SVG 1.1//EN" "http://www.w3.org/Graphics/SVG/1.1/DTD/svg11.dtd"><svg class="icon" width="200px" height="200.00px" viewBox="0 0 1024 1024" version="1.1" xmlns="http://www.w3.org/2000/svg"><path d="M252 892V332l220 560H252z" fill="#F3AEB0" /><path d="M252 892l147-187 73 187H252z" fill="#F7E4E1" /><path d="M399 705l73-93v280l-73-187z" fill="#8EB8BA" /><path d="M472 312v-90H252v90h-20v600h260V312z m-20 293.08l-47.49 60.44L281.35 352H452zM375.86 702L272 834.17V437.61z m17 43.17L442.65 872h-149.5z m28.65-36.47L452 669.83v116.56zM292 262h140v50H292zM732 572V432h40v-40h-40v-30h40v-40h-40v-30h40v-40h-40v-30h40v-40h-40v-30h40v-40H592v40h40v30h-40v40h40v30h-40v40h40v30h-40v40h40v30h-40v40h40v140h-80v340h260V572z m9.14 123.18L772 653.09v126.27zM763.36 872H611.47l101.26-138.09z m-10.83-260l-27.93 38.09-14-38.09h41.89zM672 152h20v30h-20z m0 70h20v30h-20z m0 70h20v30h-20z m0 70h20v30h-20z m0 70h20v140h-20z m-40 180h36l28.17 76.82L592 830.91V612z" fill="#272035" /></svg>